<?xml version="1.0" encoding="utf-8"?>
<!-- Generator: Adobe Illustrator 23.0.4, SVG Export Plug-In . SVG Version: 6.00 Build 0)  -->
<svg version="1.1" id="Layer_1" xmlns="http://www.w3.org/2000/svg" xmlns:xlink="http://www.w3.org/1999/xlink" x="0px" y="0px"
	 viewBox="0 0 1272.1 315.23" style="enable-background:new 0 0 1272.1 315.23;" xml:space="preserve">
<style type="text/css">
	.st0{fill:#FFFFFF;}
</style>
<g>
	<g>
		<path class="st0" d="M387.5,159.9l-3.98,18.76h-24.81l-19.56,94.78h-22.9l19.56-94.78h-24.81l3.98-18.76H387.5z"/>
		<path class="st0" d="M397.36,159.9h42.3c18.92,0,28.15,9.7,24.17,29.26c-3.18,15.27-11.29,25.29-24.81,27.99v0.32
			c15.27,2.07,15.58,10.66,10.97,34.67c-2.39,12.09-2.86,17.97,0.95,20.36l-0.16,0.95h-24.81c-1.75-3.18-1.27-7.47-0.48-11.93
			l3.98-21.79c1.43-8.91-1.27-14.31-10.65-14.31h-12.25l-9.86,48.03h-22.9L397.36,159.9z M409.92,209.52h9.54
			c10.97,0,18.13-4.77,20.67-17.02c2.23-10.5-1.91-15.74-12.56-15.74h-10.81L409.92,209.52z"/>
		<path class="st0" d="M507.88,159.9h28.31l6.52,113.54h-23.85l-0.32-24.01h-30.22l-10.18,24.01h-23.85L507.88,159.9z
			 M496.11,230.67h22.26l-0.32-51.05h-0.32L496.11,230.67z"/>
		<path class="st0" d="M551.77,273.45l23.54-113.54h22.9l-23.54,113.54H551.77z"/>
		<path class="st0" d="M591.69,273.45l23.54-113.54h22.9l-19.72,94.78h40.55l-3.82,18.77H591.69z"/>
		<path class="st0" d="M688.85,159.9h38.33c18.61,0,31.01,7,26.24,28.78c-2.54,12.25-10.18,21.63-22.26,24.81l-0.16,0.32
			c12.25,1.75,18.45,11.13,15.27,26.4c-3.82,17.81-15.58,33.24-42.3,33.24h-38.64L688.85,159.9z M691.71,256.59h8.91
			c10.97,0,19.24-3.98,21.95-17.18c2.54-13.2-3.82-17.02-13.99-17.02h-9.86L691.71,256.59z M702.05,206.5h6.52
			c12.72,0,19.08-4.13,21.47-14.95c2.39-10.81-2.07-14.79-13.52-14.79h-8.27L702.05,206.5z"/>
		<path class="st0" d="M753.73,273.45l23.54-113.54h22.9l-19.72,94.78H821l-3.82,18.77H753.73z"/>
		<path class="st0" d="M873,159.9h28.31l6.52,113.54h-23.85l-0.32-24.01h-30.22l-10.18,24.01h-23.85L873,159.9z M861.24,230.67
			h22.26l-0.32-51.05h-0.32L861.24,230.67z"/>
		<path class="st0" d="M914.99,256.75l58.04-78.08h-38.96l3.98-18.76h65.36l-3.66,17.33l-58.52,77.45h43.1l-3.82,18.77h-68.86
			L914.99,256.75z"/>
		<path class="st0" d="M1079.26,159.9l-3.98,18.76h-40.55l-5.57,26.72h38.17l-3.82,18.76h-38.17l-6.36,30.53h42.14l-3.82,18.77
			h-65.04l23.54-113.54H1079.26z"/>
		<path class="st0" d="M1092.3,159.9h42.3c18.92,0,28.15,9.7,24.17,29.26c-3.18,15.27-11.29,25.29-24.81,27.99v0.32
			c15.27,2.07,15.58,10.66,10.97,34.67c-2.38,12.09-2.86,17.97,0.95,20.36l-0.16,0.95h-24.81c-1.75-3.18-1.27-7.47-0.48-11.93
			l3.98-21.79c1.43-8.91-1.27-14.31-10.65-14.31h-12.25l-9.86,48.03h-22.9L1092.3,159.9z M1104.86,209.52h9.54
			c10.97,0,18.13-4.77,20.67-17.02c2.23-10.5-1.91-15.74-12.56-15.74h-10.81L1104.86,209.52z"/>
		<path class="st0" d="M1182.94,237.99l-0.79,3.34c-0.48,2.7-0.8,5.09-0.8,7.31c0,6.2,3.34,10.18,12.4,10.18
			c7,0,14.47-4.45,16.54-13.99c2.07-10.18-2.39-14.31-16.38-19.4c-19.08-6.84-26.4-15.58-22.58-34.35
			c4.61-22.26,20.36-33.4,42.14-33.4c20.51,0,33.08,8.75,28.78,30.53l-0.64,3.18h-21.95c2.38-10.81,0-16.86-8.91-16.86
			c-10.34,0-14.47,6.36-15.74,13.2c-1.75,7-0.32,11.45,8.43,15.43l16.06,7.63c15.74,7.63,18.45,16.06,15.43,30.06
			c-4.93,24.01-21.79,34.83-46.59,34.83c-25.92,0-33.71-12.09-29.26-33.08l0.95-4.61H1182.94z"/>
	</g>
	<g>
		<path class="st0" d="M410.71,46.2h28.31l6.52,113.55h-23.85l-0.32-24.01h-30.22l-10.18,24.01h-23.85L410.71,46.2z M398.95,116.97
			h22.26l-0.32-51.05h-0.32L398.95,116.97z"/>
		<path class="st0" d="M477.03,46.2h42.3c18.92,0,28.15,9.7,24.17,29.26c-3.18,15.27-11.29,25.29-24.81,27.99v0.32
			c15.27,2.07,15.58,10.66,10.97,34.67c-2.39,12.09-2.86,17.97,0.95,20.36l-0.16,0.95h-24.81c-1.75-3.18-1.27-7.47-0.48-11.93
			l3.98-21.79c1.43-8.91-1.27-14.31-10.65-14.31h-12.25l-9.86,48.03h-22.9L477.03,46.2z M489.59,95.82h9.54
			c10.97,0,18.13-4.77,20.67-17.02c2.23-10.5-1.91-15.74-12.56-15.74h-10.81L489.59,95.82z"/>
		<path class="st0" d="M565.45,46.2h22.9l-9.06,43.42H606l9.06-43.42h22.9l-23.54,113.55h-22.9l10.34-50.41h-26.72l-10.34,50.41
			h-22.9L565.45,46.2z"/>
		<path class="st0" d="M717.32,46.2l-3.98,18.77h-40.55l-5.57,26.72h38.17l-3.82,18.76h-38.17l-6.36,30.53h42.14l-3.82,18.77h-65.04
			L653.87,46.2H717.32z"/>
		<path class="st0" d="M793.81,46.2l-3.98,18.77h-40.55l-5.57,26.72h38.17l-3.82,18.76H739.9l-6.36,30.53h42.14l-3.82,18.77h-65.04
			L730.35,46.2H793.81z"/>
		<path class="st0" d="M783.31,159.75L806.84,46.2h22.9l-19.72,94.78h40.55l-3.82,18.77H783.31z"/>
	</g>
	<g>
		<path class="st0" d="M386.34,46.2l-3.98,18.77h-24.81L338,159.75h-22.9l19.56-94.78h-24.81l3.98-18.77H386.34z"/>
	</g>
	<g>
		<path class="st0" d="M113.09,58.41c60.18,16.27,70.02,23.81,73.3,30.99c5.73,12.54-28.89,21.29-34.13,30.33
			c-4.71,8.13,38,10.67,42.79,18.51c11.51,18.81-71.94,31.19-67.47,45.2c3.64,11.4,28.26,15.44,119.56,39.29
			c1.11,0.29-27.86,26.2-27.86,26.2c-0.3,0.15-0.65,0.17-0.97,0.06c-108.18-36.43-131.56-56.62-129.74-68.52
			c3.04-19.9,73.44-24.96,72.44-37.32c-0.74-9.15-37.73-11.49-38.2-20.87c-0.47-9.39,38.97-17.48,40.88-29.83
			c1.2-7.74,0.4-11.44-54.65-30.11L113.09,58.41z"/>
		<path class="st0" d="M159.34,288.96c0.76,0.03,1-0.2,1.11-0.89c0.33-2.02,0.8-4.03,1.02-6.06c0.19-1.82,0.51-3.54,2.12-4.62
			c2.39-1.59,5.05-2.07,7.86-1.47c1.79,0.38,2.9,1.62,3.81,3.11c1.31,2.13,1.97,4.51,2.63,6.88c0.25,0.9,0.62,1.32,1.62,1.13
			c1.31-0.25,2.64-0.42,3.97-0.59c0.57-0.08,0.91-0.34,0.92-0.94c0.02-1.9,0.28-3.8-0.05-5.7c-0.65-3.76,0.32-5.63,3.77-7.27
			c0.77-0.36,1.56-0.63,2.37-0.84c2.65-0.7,4.86,0,6.64,2.06c1.29,1.5,2.42,3.09,3.3,4.88c1.42,2.9,1.64,2.95,4.59,1.68
			c0.39-0.17,0.75-0.4,1.15-0.54c1.06-0.37,1.27-1.1,1.14-2.14c-0.23-1.89-0.65-3.73-1.26-5.54c-0.84-2.46-0.3-4.57,1.66-6.3
			c1.39-1.23,2.96-2.1,4.78-2.55c1.78-0.44,3.39-0.12,4.77,0.99c1.31,1.06,2.62,2.13,3.75,3.41c0.96,1.09,1.68,2.41,2.95,3.23
			c1.34-0.77,2.68-1.53,4.02-2.3c0.12-0.07,0.25-0.14,0.36-0.22c0.39-0.27,0.53-0.59,0.34-1.08c-0.69-1.76-0.98-3.67-2.13-5.25
			c-0.9-1.23-1.24-2.64-1.16-4.18c0.16-2.9,4.85-7.61,8.94-6.73c1.12,0.24,2.1,0.76,3.11,1.28c1.97,1.02,3.48,2.62,5.17,3.99
			c0.68,0.55,1.13,0.53,1.85,0.06c1.08-0.7,1.89-1.68,2.84-2.51c0.69-0.6,0.57-1.17,0.15-1.84c-1.03-1.67-2-3.38-3.28-4.91
			c-1.87-2.24-2.01-4.3-0.61-6.82c0.59-1.05,1.32-2,2.13-2.89c1.56-1.7,3.51-2.3,5.74-1.88c1.31,0.25,2.54,0.77,3.75,1.35
			c1.68,0.8,3.28,1.75,4.96,2.69c1.33-1.6,2.58-3.1,3.83-4.6c-1.75-1.94-3.17-3.93-5.19-5.44c-1.85-1.38-2.29-3.48-1.7-5.72
			c0.47-1.8,1.44-3.38,2.58-4.81c0.95-1.19,2.28-1.85,3.87-1.86c0.99,0,1.97,0.05,2.95,0.23c2.02,0.36,3.94,1.07,5.85,1.77
			c0.98,0.36,1.6,0.2,2.03-0.77c0.52-1.15,1.08-2.29,1.66-3.41c0.28-0.53,0.2-0.9-0.28-1.26c-1.47-1.09-2.79-2.36-4.41-3.26
			c-3.6-2-4.36-3.81-3.41-7.85c0.1-0.41,0.23-0.81,0.36-1.21c1.19-3.58,2.97-4.88,6.68-4.93c2.26-0.03,4.49,0.21,6.71,0.6
			c1.31,0.23,1.38,0.15,1.76-1.14c0.3-1.01,0.49-2.06,0.88-3.04c0.44-1.1,0.03-1.61-0.92-2.12c-1.61-0.88-3.24-1.66-4.99-2.24
			c-2.85-0.94-4.08-2.7-4.15-5.66c-0.04-1.43,0.18-2.83,0.57-4.17c0.56-1.93,1.82-3.34,3.82-3.88c1.9-0.52,3.81-0.98,5.8-1.02
			c4.19-0.09,4,0.64,4.41-4.31c0.14-1.7,0.07-1.62-1.44-2.27c-1.89-0.81-3.94-0.72-5.88-1.28c-2.84-0.82-4.41-2.54-4.72-5.51
			c-0.08-0.77-0.07-1.55-0.08-2.32c-0.07-3.2,1.39-5.29,4.4-6.46c2.17-0.84,4.4-1.48,6.65-2.01c0.88-0.21,1.15-0.55,1.04-1.42
			c-0.14-1.11-0.21-2.24-0.23-3.37c-0.02-0.92-0.32-1.46-1.33-1.49c-1.89-0.05-3.73-0.53-5.67-0.27c-2.6,0.35-4.77-0.93-5.82-3.3
			c-2.14-4.8-1.72-8.7,3.32-11.47c1.68-0.92,3.42-1.64,5.16-2.39c0.81-0.35,1.08-0.78,0.81-1.61c-0.38-1.13-0.81-2.26-1.05-3.43
			c-0.18-0.85-0.63-0.96-1.34-0.93c-1.9,0.09-3.79,0.12-5.65,0.63c-2.44,0.67-4.61,0.23-6.32-1.76c-3.46-4.02-3.14-8.61,0.82-12.05
			c0.43-0.37,0.86-0.73,1.31-1.06c1.08-0.78,2.13-1.64,3.3-2.29c1.01-0.56,0.98-1.16,0.52-2.03c-0.53-0.99-1.04-2-1.46-3.04
			c-0.3-0.75-0.7-0.94-1.46-0.72c-1.88,0.55-3.81,0.89-5.59,1.84c-2.48,1.32-4.92,0.82-6.95-1.17c-0.81-0.8-1.45-1.72-2.03-2.69
			c-1.5-2.47-1.53-4.92,0.13-7.32c0.92-1.33,1.9-2.62,3-3.82c0.91-0.99,2.62-1.73,2.38-3.18c-0.21-1.3-1.46-2.35-2.34-3.45
			c-0.47-0.6-0.85-0.73-1.59-0.39c-1.78,0.83-3.61,1.55-5.16,2.8c-1.6,1.29-3.47,1.75-5.35,1.02c-2.59-1-4.49-2.89-5.59-5.47
			c-0.87-2.04-0.34-4.01,0.56-5.9c1.1-2.3,2.67-4.3,4.1-6.51c-1.14-1.08-2.3-2.11-3.37-3.22c-0.61-0.64-1.14-0.67-1.78-0.15
			c-1.46,1.21-3.08,2.21-4.42,3.59c-2.38,2.46-4.82,2.75-7.83,1.07c-0.73-0.41-1.43-0.9-2.07-1.45c-2.24-1.91-3.02-4.26-2.3-7.18
			c0.6-2.41,1.51-4.68,2.59-6.9c0.35-0.72,0.31-1.15-0.36-1.55c-1.15-0.68-2.3-1.37-3.42-2.1c-0.58-0.37-0.98-0.32-1.45,0.2
			c-1.36,1.52-2.89,2.89-3.95,4.67c-0.76,1.26-1.8,2.19-3.21,2.59c-4.8,1.37-10.02-2.7-9.98-7.69c0.02-2.49,0.52-4.89,1.13-7.28
			c0.21-0.82,0.13-1.31-0.78-1.59c-1.14-0.36-2.26-0.8-3.34-1.3c-0.71-0.32-1.15-0.28-1.56,0.43c-1.01,1.76-2.36,3.3-3.07,5.27
			c-0.94,2.62-3.5,4.04-6.24,3.63c-1.11-0.16-2.21-0.45-3.28-0.79c-2.19-0.69-3.58-2.17-4.08-4.43c-0.39-1.79-0.59-3.61-0.55-5.45
			c0.03-1.13,0.06-2.25,0.12-3.38c0.03-0.66-0.16-1-0.91-1.1c-1.32-0.18-2.62-0.52-3.93-0.8c-0.66-0.14-1.07,0.05-1.3,0.71
			c-0.64,1.86-1.66,3.58-1.98,5.55c-0.43,2.63-2.08,4.79-5.65,5.03c-4.03,0.27-7.58-0.7-8.76-5.69c-0.42-1.78-0.84-3.55-1.12-5.36
			c-0.34-2.15-0.33-2.15-2.6-2.22c-0.7-0.02-1.41-0.05-2.11-0.05c-1.52-0.01-1.57-0.02-1.85,1.37c-0.4,1.99-0.93,3.95-0.94,6.03
			c-0.01,2.34-1.3,3.94-3.43,4.87c-1.51,0.66-3.11,0.85-4.74,0.88c-2.23,0.04-3.93-0.92-5.11-2.8c-0.94-1.5-1.64-3.1-2.25-4.75
			c-0.48-1.3-0.42-3.16-1.53-3.78c-1.2-0.66-2.85,0.29-4.33,0.38c-0.21,0.01-0.41,0.14-0.61,0.15c-0.75,0.04-0.91,0.49-0.89,1.14
			c0.07,2.17-0.2,4.33,0.2,6.52c0.45,2.46-0.61,4.43-2.75,5.7c-1.46,0.86-3.08,1.37-4.78,1.56c-2.02,0.22-3.76-0.37-5.07-2
			c-0.75-0.93-1.55-1.84-2.19-2.84c-0.86-1.35-1.6-2.79-2.36-4.2c-0.31-0.59-0.67-0.82-1.35-0.55c-1.37,0.55-2.75,1.05-4.15,1.54
			c-0.69,0.24-0.79,0.66-0.64,1.31c0.47,2.05,0.66,4.14,1.41,6.15c1.06,2.82,0.1,5.27-2.45,6.95c-0.99,0.65-2.08,1.18-3.18,1.64
			c-1.99,0.82-3.87,0.46-5.59-0.79c-1.6-1.17-2.99-2.56-4.33-4.02c-0.86-0.94-1.22-2.73-2.71-2.64c-1.27,0.07-2.37,1.15-3.48,1.9
			c-0.06,0.04-0.11,0.1-0.17,0.13c-0.93,0.44-1.11,1.11-0.75,2.06c0.7,1.84,1.29,3.72,2.34,5.41c0.65,1.04,0.98,2.15,0.92,3.4
			c-0.15,3.39-5.4,7.94-9.21,6.87c-0.47-0.13-0.94-0.29-1.38-0.5c-1.46-0.72-2.82-1.58-4.12-2.56c-1.22-0.92-2.09-2.29-3.6-2.84
			c-1.23,1.05-2.44,2.12-3.7,3.14c-0.66,0.54-0.78,1.02-0.27,1.76c1.15,1.68,2.12,3.46,3.44,5.04c1.94,2.32,2,4.64,0.39,7.2
			c-0.8,1.26-1.79,2.35-2.98,3.25c-0.74,0.57-1.56,0.95-2.48,1.1c-1.82,0.29-6.1-0.99-7.63-2.25c-2.94-2.42-3.36-2.38-5.73,0.59
			c-0.39,0.49-0.73,1.04-1.14,1.51c-0.42,0.48-0.31,0.83,0.09,1.26c1.42,1.56,2.66,3.27,4.42,4.51c1.46,1.03,2.17,2.54,2.24,4.34
			c0.19,4.84-3.66,8.63-8.48,8.3c-0.63-0.04-1.25-0.19-1.87-0.3c-1.82-0.32-3.47-1.14-5.2-1.74c-0.81-0.29-1.42-0.42-1.79,0.66
			c-0.34,0.99-0.95,1.88-1.42,2.83c-0.82,1.65-0.83,1.67,0.65,2.87c1.31,1.06,2.66,2.05,4.17,2.85c2.71,1.43,3.79,3.89,3.15,6.7
			c-0.93,4.1-2.39,6.51-6.3,6.83c-1.96,0.16-3.94,0.22-5.89-0.3c-0.81-0.22-1.66-0.31-2.49-0.44c-0.54-0.09-0.99,0.05-1.17,0.64
			c-0.45,1.48-0.98,2.93-1.22,4.47c-0.09,0.55,0.05,0.9,0.62,1.15c1.98,0.86,3.78,2.09,5.9,2.73c2.11,0.63,3.51,2.17,3.84,4.36
			c0.34,2.18-0.02,4.35-0.95,6.38c-0.72,1.57-2.06,2.52-3.65,2.96c-1.69,0.46-3.41,0.8-5.18,0.95c-1.42,0.12-3.34-0.65-4.15,0.57
			c-0.72,1.08-0.41,2.86-0.56,4.32c-0.01,0.07,0,0.14-0.02,0.21c-0.16,0.77,0.2,1.13,0.91,1.37c2,0.68,4.04,1.17,6.13,1.52
			c3.07,0.52,4.79,2.5,5.04,5.59c0.05,0.63,0.04,1.27,0.08,1.9c0.17,3.22-1.31,5.29-4.25,6.57c-2.29,0.99-4.69,1.47-7.09,1.99
			c-0.59,0.13-1.13,0.18-1.07,0.97c0.11,1.4,0.15,2.81,0.34,4.21c0.08,0.59,0.33,1.13,1.2,1.2c1.72,0.15,3.39,0.64,5.16,0.48
			c4.09-0.37,6.16,1.1,7.31,5.05c0.2,0.67,0.33,1.36,0.45,2.05c0.48,2.65-0.49,4.64-2.66,6.19c-2.08,1.49-4.32,2.62-6.73,3.45
			c-1.28,0.44-1.32,0.57-0.98,1.85c0.32,1.22,0.79,2.41,1.06,3.64c0.16,0.75,0.53,0.89,1.17,0.83c2.02-0.18,4.04-0.05,6.06-0.61
			c3.06-0.84,5.32,0.28,6.9,3.07c0.41,0.73,0.74,1.51,1.06,2.29c1.07,2.62,0.6,4.92-1.39,6.97c-1.58,1.63-3.37,2.98-5.28,4.19
			c-1.89,1.2-1.86,1.21-0.88,3.13c0.41,0.81,0.79,1.64,1.1,2.49c0.31,0.83,0.84,1.02,1.64,0.81c2.03-0.54,4.06-1.07,6.01-1.9
			c2.09-0.89,4.28-0.92,5.95,0.68c3.83,3.65,5.27,7.25,1.67,11.59c-0.45,0.54-0.89,1.09-1.38,1.6c-0.97,1-1.96,1.98-2.97,2.95
			c-0.62,0.59-0.65,1.18-0.15,1.85c0.79,1.06,1.58,2.12,2.36,3.18c0.29,0.39,0.66,0.56,1.09,0.32c1.83-1.01,3.92-1.44,5.6-2.81
			c1.49-1.21,3.29-1.55,5.19-1.11c4.52,1.06,7.2,6.34,5.42,10.61c-0.96,2.3-2.35,4.31-3.93,6.2c-0.44,0.52-0.63,1.01-0.03,1.42
			c1.1,0.77,1.81,1.92,2.78,2.81c0.7,0.64,1.29,0.65,2.06,0.13c1.69-1.15,3.35-2.32,4.74-3.84c1.84-2.01,4.97-2.33,7.35-0.87
			c0.9,0.55,1.79,1.13,2.59,1.81c1.93,1.64,2.65,3.68,2.06,6.22c-0.55,2.34-1.41,4.55-2.42,6.71c-0.69,1.48-0.73,1.53,0.56,2.5
			c1.22,0.91,2.53,1.69,3.91,2.59c1.46-2,3.28-3.55,4.58-5.57c1.66-2.58,3.88-3.31,6.75-2.33c1.06,0.36,2.09,0.84,3.07,1.38
			c2.16,1.19,3.18,3.02,3.17,5.55c-0.01,2.56-0.52,5.01-1.16,7.46c-0.38,1.45-0.24,1.73,1.04,2.26c0.97,0.4,1.99,0.69,2.93,1.16
			c0.91,0.46,1.43,0.17,1.92-0.6c1.09-1.73,2.24-3.4,3.05-5.3c1.08-2.53,2.94-3.63,5.66-3.52c1.56,0.07,3.06,0.45,4.49,1.05
			c1.79,0.76,2.92,2.12,3.39,4.04c0.75,3.12,0.56,6.26,0.3,9.51c1.51,0.62,3.21,0.7,4.82,1.16c0.8,0.23,1.21,0.01,1.46-0.71
			c0.61-1.79,1.56-3.44,1.9-5.35c0.6-3.37,2.57-4.96,6-5.07c0.84-0.03,1.69,0.02,2.54,0.02c2.28,0,3.91,1.12,4.93,3.05
			c0.98,1.87,1.65,3.89,1.88,6c0.49,4.32,0.45,4.33,4.87,4.25 M158,260.54c-56.76,0-102.78-46.02-102.78-102.78
			S101.24,54.98,158,54.98s102.78,46.02,102.78,102.78S214.77,260.54,158,260.54z"/>
	</g>
</g>
</svg>
