<?xml version="1.0" encoding="utf-8"?>
<!-- Generator: Adobe Illustrator 22.0.1, SVG Export Plug-In . SVG Version: 6.00 Build 0)  -->
<svg version="1.1" id="Layer_1" xmlns="http://www.w3.org/2000/svg" xmlns:xlink="http://www.w3.org/1999/xlink" x="0px" y="0px"
	 viewBox="0 0 783.5 171.3" style="enable-background:new 0 0 783.5 171.3;" xml:space="preserve">
<g>
	<path d="M232.9,86.6l-2.5,12h-15.8L202.1,159h-14.6L200,98.5h-15.8l2.5-12H232.9z"/>
	<path d="M239.2,86.6h27c12.1,0,18,6.2,15.4,18.7c-2,9.7-7.2,16.1-15.8,17.9v0.2c9.7,1.3,9.9,6.8,7,22.1c-1.5,7.7-1.8,11.5,0.6,13
		l-0.1,0.6h-15.8c-1.1-2-0.8-4.8-0.3-7.6l2.5-13.9c0.9-5.7-0.8-9.1-6.8-9.1h-7.8l-6.3,30.6h-14.6L239.2,86.6z M247.3,118.2h6.1
		c7,0,11.6-3,13.2-10.9c1.4-6.7-1.2-10-8-10h-6.9L247.3,118.2z"/>
	<path d="M309.7,86.6h18.1l4.2,72.4h-15.2l-0.2-15.3h-19.3l-6.5,15.3h-15.2L309.7,86.6z M302.2,131.7h14.2l-0.2-32.6H316
		L302.2,131.7z"/>
	<path d="M337.7,159l15-72.4h14.6l-15,72.4H337.7z"/>
	<path d="M363.2,159l15-72.4h14.6L380.2,147h25.9l-2.4,12H363.2z"/>
	<path d="M425.2,86.6h24.4c11.9,0,19.8,4.5,16.7,18.4c-1.6,7.8-6.5,13.8-14.2,15.8L452,121c7.8,1.1,11.8,7.1,9.7,16.8
		c-2.4,11.4-9.9,21.2-27,21.2h-24.6L425.2,86.6z M427,148.2h5.7c7,0,12.3-2.5,14-11c1.6-8.4-2.4-10.9-8.9-10.9h-6.3L427,148.2z
		 M433.6,116.3h4.2c8.1,0,12.2-2.6,13.7-9.5c1.5-6.9-1.3-9.4-8.6-9.4h-5.3L433.6,116.3z"/>
	<path d="M466.5,159l15-72.4h14.6L483.6,147h25.9l-2.4,12H466.5z"/>
	<path d="M542.6,86.6h18.1l4.2,72.4h-15.2l-0.2-15.3h-19.3l-6.5,15.3h-15.2L542.6,86.6z M535.1,131.7h14.2l-0.2-32.6h-0.2
		L535.1,131.7z"/>
	<path d="M569.4,148.3l37-49.8h-24.8l2.5-12h41.7l-2.3,11.1L586.1,147h27.5l-2.4,12h-43.9L569.4,148.3z"/>
	<path d="M674.2,86.6l-2.5,12h-25.9l-3.5,17h24.3l-2.4,12h-24.3l-4.1,19.5h26.9l-2.4,12h-41.5l15-72.4H674.2z"/>
	<path d="M682.5,86.6h27c12.1,0,18,6.2,15.4,18.7c-2,9.7-7.2,16.1-15.8,17.9v0.2c9.7,1.3,9.9,6.8,7,22.1c-1.5,7.7-1.8,11.5,0.6,13
		l-0.1,0.6h-15.8c-1.1-2-0.8-4.8-0.3-7.6l2.5-13.9c0.9-5.7-0.8-9.1-6.8-9.1h-7.8l-6.3,30.6h-14.6L682.5,86.6z M690.5,118.2h6.1
		c7,0,11.6-3,13.2-10.9c1.4-6.7-1.2-10-8-10h-6.9L690.5,118.2z"/>
	<path d="M740.3,136.4l-0.5,2.1c-0.3,1.7-0.5,3.2-0.5,4.7c0,4,2.1,6.5,7.9,6.5c4.5,0,9.2-2.8,10.5-8.9c1.3-6.5-1.5-9.1-10.4-12.4
		c-12.2-4.4-16.8-9.9-14.4-21.9c2.9-14.2,13-21.3,26.9-21.3c13.1,0,21.1,5.6,18.4,19.5l-0.4,2h-14c1.5-6.9,0-10.8-5.7-10.8
		c-6.6,0-9.2,4.1-10,8.4c-1.1,4.5-0.2,7.3,5.4,9.8l10.2,4.9c10,4.9,11.8,10.2,9.8,19.2c-3.1,15.3-13.9,22.2-29.7,22.2
		c-16.5,0-21.5-7.7-18.7-21.1l0.6-2.9H740.3z"/>
</g>
<g>
	<path d="M247.8,14.1h18.1l4.2,72.4h-15.2l-0.2-15.3h-19.3l-6.5,15.3h-15.2L247.8,14.1z M240.3,59.2h14.2l-0.2-32.6H254L240.3,59.2z
		"/>
	<path d="M290.1,14.1h27c12.1,0,18,6.2,15.4,18.7c-2,9.7-7.2,16.1-15.8,17.9v0.2c9.7,1.3,9.9,6.8,7,22.1c-1.5,7.7-1.8,11.5,0.6,13
		l-0.1,0.6h-15.8c-1.1-2-0.8-4.8-0.3-7.6l2.5-13.9c0.9-5.7-0.8-9.1-6.8-9.1h-7.8l-6.3,30.6H275L290.1,14.1z M298.1,45.7h6.1
		c7,0,11.6-3,13.2-10.9c1.4-6.7-1.2-10-8-10h-6.9L298.1,45.7z"/>
	<path d="M346.5,14.1h14.6l-5.8,27.7h17l5.8-27.7h14.6l-15,72.4h-14.6l6.6-32.2h-17L346,86.5h-14.6L346.5,14.1z"/>
	<path d="M443.3,14.1l-2.5,12h-25.9l-3.5,17h24.3l-2.4,12h-24.3l-4.1,19.5h26.9l-2.4,12h-41.5l15-72.4H443.3z"/>
	<path d="M492.1,14.1l-2.5,12h-25.9l-3.5,17h24.3l-2.4,12h-24.3l-4.1,19.5h26.9l-2.4,12h-41.5l15-72.4H492.1z"/>
	<path d="M485.4,86.5l15-72.4H515l-12.6,60.4h25.9l-2.4,12H485.4z"/>
</g>
<g>
	<path d="M232.2,14.1l-2.5,12h-15.8l-12.5,60.4h-14.6L199.2,26h-15.8l2.5-12H232.2z"/>
</g>
<g>
	<path d="M57.9,21.8c38.4,10.4,44.7,15.2,46.8,19.8c3.7,8-18.4,13.6-21.8,19.3c-3,5.2,24.2,6.8,27.3,11.8c7.3,12-45.9,19.9-43,28.8
		c2.3,7.3,18,9.9,76.3,25.1c0.7,0.2-17.8,16.7-17.8,16.7c-0.2,0.1-0.4,0.1-0.6,0c-69-23.2-83.9-36.1-82.8-43.7
		C44.2,87,89.1,83.8,88.5,75.9C88,70,64.4,68.6,64.1,62.6c-0.3-6,24.9-11.2,26.1-19c0.8-4.9,0.3-7.3-34.9-19.2L57.9,21.8z"/>
	<path d="M87.4,168.9c0.5,0,0.6-0.1,0.7-0.6c0.2-1.3,0.5-2.6,0.6-3.9c0.1-1.2,0.3-2.3,1.4-2.9c1.5-1,3.2-1.3,5-0.9
		c1.1,0.2,1.8,1,2.4,2c0.8,1.4,1.3,2.9,1.7,4.4c0.2,0.6,0.4,0.8,1,0.7c0.8-0.2,1.7-0.3,2.5-0.4c0.4,0,0.6-0.2,0.6-0.6
		c0-1.2,0.2-2.4,0-3.6c-0.4-2.4,0.2-3.6,2.4-4.6c0.5-0.2,1-0.4,1.5-0.5c1.7-0.4,3.1,0,4.2,1.3c0.8,1,1.5,2,2.1,3.1
		c0.9,1.8,1,1.9,2.9,1.1c0.2-0.1,0.5-0.3,0.7-0.3c0.7-0.2,0.8-0.7,0.7-1.4c-0.1-1.2-0.4-2.4-0.8-3.5c-0.5-1.6-0.2-2.9,1.1-4
		c0.9-0.8,1.9-1.3,3.1-1.6c1.1-0.3,2.2-0.1,3,0.6c0.8,0.7,1.7,1.4,2.4,2.2c0.6,0.7,1.1,1.5,1.9,2.1c0.9-0.5,1.7-1,2.6-1.5
		c0.1,0,0.2-0.1,0.2-0.1c0.2-0.2,0.3-0.4,0.2-0.7c-0.4-1.1-0.6-2.3-1.4-3.3c-0.6-0.8-0.8-1.7-0.7-2.7c0.1-1.9,3.1-4.9,5.7-4.3
		c0.7,0.2,1.3,0.5,2,0.8c1.3,0.6,2.2,1.7,3.3,2.5c0.4,0.4,0.7,0.3,1.2,0c0.7-0.4,1.2-1.1,1.8-1.6c0.4-0.4,0.4-0.7,0.1-1.2
		c-0.7-1.1-1.3-2.2-2.1-3.1c-1.2-1.4-1.3-2.7-0.4-4.4c0.4-0.7,0.8-1.3,1.4-1.8c1-1.1,2.2-1.5,3.7-1.2c0.8,0.2,1.6,0.5,2.4,0.9
		c1.1,0.5,2.1,1.1,3.2,1.7c0.8-1,1.6-2,2.4-2.9c-1.1-1.2-2-2.5-3.3-3.5c-1.2-0.9-1.5-2.2-1.1-3.6c0.3-1.1,0.9-2.2,1.6-3.1
		c0.6-0.8,1.5-1.2,2.5-1.2c0.6,0,1.3,0,1.9,0.1c1.3,0.2,2.5,0.7,3.7,1.1c0.6,0.2,1,0.1,1.3-0.5c0.3-0.7,0.7-1.5,1.1-2.2
		c0.2-0.3,0.1-0.6-0.2-0.8c-0.9-0.7-1.8-1.5-2.8-2.1c-2.3-1.3-2.8-2.4-2.2-5c0.1-0.3,0.1-0.5,0.2-0.8c0.8-2.3,1.9-3.1,4.3-3.1
		c1.4,0,2.9,0.1,4.3,0.4c0.8,0.1,0.9,0.1,1.1-0.7c0.2-0.6,0.3-1.3,0.6-1.9c0.3-0.7,0-1-0.6-1.4c-1-0.6-2.1-1.1-3.2-1.4
		c-1.8-0.6-2.6-1.7-2.7-3.6c0-0.9,0.1-1.8,0.4-2.7c0.4-1.2,1.2-2.1,2.4-2.5c1.2-0.3,2.4-0.6,3.7-0.7c2.7-0.1,2.5,0.4,2.8-2.8
		c0.1-1.1,0-1-0.9-1.4c-1.2-0.5-2.5-0.5-3.8-0.8c-1.8-0.5-2.8-1.6-3-3.5c-0.1-0.5,0-1-0.1-1.5c0-2,0.9-3.4,2.8-4.1
		c1.4-0.5,2.8-0.9,4.2-1.3c0.6-0.1,0.7-0.4,0.7-0.9c-0.1-0.7-0.1-1.4-0.1-2.1c0-0.6-0.2-0.9-0.8-1c-1.2,0-2.4-0.3-3.6-0.2
		c-1.7,0.2-3-0.6-3.7-2.1c-1.4-3.1-1.1-5.5,2.1-7.3c1.1-0.6,2.2-1,3.3-1.5c0.5-0.2,0.7-0.5,0.5-1c-0.2-0.7-0.5-1.4-0.7-2.2
		c-0.1-0.5-0.4-0.6-0.9-0.6c-1.2,0.1-2.4,0.1-3.6,0.4c-1.6,0.4-2.9,0.1-4-1.1c-2.2-2.6-2-5.5,0.5-7.7c0.3-0.2,0.5-0.5,0.8-0.7
		c0.7-0.5,1.4-1,2.1-1.5c0.6-0.4,0.6-0.7,0.3-1.3c-0.3-0.6-0.7-1.3-0.9-1.9c-0.2-0.5-0.4-0.6-0.9-0.5c-1.2,0.3-2.4,0.6-3.6,1.2
		c-1.6,0.8-3.1,0.5-4.4-0.7c-0.5-0.5-0.9-1.1-1.3-1.7c-1-1.6-1-3.1,0.1-4.7c0.6-0.8,1.2-1.7,1.9-2.4c0.6-0.6,1.7-1.1,1.5-2
		c-0.1-0.8-0.9-1.5-1.5-2.2c-0.3-0.4-0.5-0.5-1-0.2c-1.1,0.5-2.3,1-3.3,1.8c-1,0.8-2.2,1.1-3.4,0.7c-1.6-0.6-2.9-1.8-3.6-3.5
		c-0.6-1.3-0.2-2.6,0.4-3.8c0.7-1.5,1.7-2.7,2.6-4.2c-0.7-0.7-1.5-1.3-2.1-2.1c-0.4-0.4-0.7-0.4-1.1-0.1c-0.9,0.8-2,1.4-2.8,2.3
		c-1.5,1.6-3.1,1.8-5,0.7c-0.5-0.3-0.9-0.6-1.3-0.9c-1.4-1.2-1.9-2.7-1.5-4.6c0.4-1.5,1-3,1.6-4.4c0.2-0.5,0.2-0.7-0.2-1
		c-0.7-0.4-1.5-0.9-2.2-1.3c-0.4-0.2-0.6-0.2-0.9,0.1c-0.9,1-1.8,1.8-2.5,3c-0.5,0.8-1.1,1.4-2,1.7c-3.1,0.9-6.4-1.7-6.4-4.9
		c0-1.6,0.3-3.1,0.7-4.6c0.1-0.5,0.1-0.8-0.5-1c-0.7-0.2-1.4-0.5-2.1-0.8c-0.5-0.2-0.7-0.2-1,0.3c-0.6,1.1-1.5,2.1-2,3.4
		c-0.6,1.7-2.2,2.6-4,2.3c-0.7-0.1-1.4-0.3-2.1-0.5c-1.4-0.4-2.3-1.4-2.6-2.8c-0.2-1.1-0.4-2.3-0.3-3.5c0-0.7,0-1.4,0.1-2.2
		c0-0.4-0.1-0.6-0.6-0.7c-0.8-0.1-1.7-0.3-2.5-0.5c-0.4-0.1-0.7,0-0.8,0.5c-0.4,1.2-1.1,2.3-1.3,3.5C99,8.5,98,9.8,95.7,10
		c-2.6,0.2-4.8-0.4-5.6-3.6c-0.3-1.1-0.5-2.3-0.7-3.4c-0.2-1.4-0.2-1.4-1.7-1.4c-0.4,0-0.9,0-1.3,0c-1,0-1,0-1.2,0.9
		c-0.3,1.3-0.6,2.5-0.6,3.8c0,1.5-0.8,2.5-2.2,3.1c-1,0.4-2,0.5-3,0.6c-1.4,0-2.5-0.6-3.3-1.8c-0.6-1-1-2-1.4-3
		c-0.3-0.8-0.3-2-1-2.4C73,2.2,71.9,2.8,71,2.9c-0.1,0-0.3,0.1-0.4,0.1C70.1,3,70,3.3,70,3.7c0,1.4-0.1,2.8,0.1,4.2
		c0.3,1.6-0.4,2.8-1.8,3.6c-0.9,0.6-2,0.9-3,1c-1.3,0.1-2.4-0.2-3.2-1.3c-0.5-0.6-1-1.2-1.4-1.8c-0.5-0.9-1-1.8-1.5-2.7
		c-0.2-0.4-0.4-0.5-0.9-0.3c-0.9,0.4-1.8,0.7-2.6,1c-0.4,0.2-0.5,0.4-0.4,0.8c0.3,1.3,0.4,2.6,0.9,3.9c0.7,1.8,0.1,3.4-1.6,4.4
		c-0.6,0.4-1.3,0.8-2,1c-1.3,0.5-2.5,0.3-3.6-0.5c-1-0.7-1.9-1.6-2.8-2.6c-0.6-0.6-0.8-1.7-1.7-1.7c-0.8,0-1.5,0.7-2.2,1.2
		c0,0-0.1,0.1-0.1,0.1c-0.6,0.3-0.7,0.7-0.5,1.3c0.4,1.2,0.8,2.4,1.5,3.5c0.4,0.7,0.6,1.4,0.6,2.2c-0.1,2.2-3.4,5.1-5.9,4.4
		c-0.3-0.1-0.6-0.2-0.9-0.3c-0.9-0.5-1.8-1-2.6-1.6c-0.8-0.6-1.3-1.5-2.3-1.8c-0.8,0.7-1.6,1.4-2.4,2c-0.4,0.3-0.5,0.6-0.2,1.1
		c0.7,1.1,1.4,2.2,2.2,3.2c1.2,1.5,1.3,3,0.2,4.6c-0.5,0.8-1.1,1.5-1.9,2.1c-0.5,0.4-1,0.6-1.6,0.7c-1.2,0.2-3.9-0.6-4.9-1.4
		c-1.9-1.5-2.1-1.5-3.7,0.4c-0.3,0.3-0.5,0.7-0.7,1c-0.3,0.3-0.2,0.5,0.1,0.8c0.9,1,1.7,2.1,2.8,2.9c0.9,0.7,1.4,1.6,1.4,2.8
		c0.1,3.1-2.3,5.5-5.4,5.3c-0.4,0-0.8-0.1-1.2-0.2c-1.2-0.2-2.2-0.7-3.3-1.1c-0.5-0.2-0.9-0.3-1.1,0.4c-0.2,0.6-0.6,1.2-0.9,1.8
		c-0.5,1.1-0.5,1.1,0.4,1.8c0.8,0.7,1.7,1.3,2.7,1.8c1.7,0.9,2.4,2.5,2,4.3c-0.6,2.6-1.5,4.2-4,4.4c-1.2,0.1-2.5,0.1-3.8-0.2
		c-0.5-0.1-1.1-0.2-1.6-0.3c-0.3-0.1-0.6,0-0.7,0.4C6.4,61.1,6,62.1,5.9,63c-0.1,0.3,0,0.6,0.4,0.7c1.3,0.6,2.4,1.3,3.8,1.7
		c1.3,0.4,2.2,1.4,2.5,2.8c0.2,1.4,0,2.8-0.6,4.1c-0.5,1-1.3,1.6-2.3,1.9c-1.1,0.3-2.2,0.5-3.3,0.6c-0.9,0.1-2.1-0.4-2.6,0.4
		C3.1,75.9,3.3,77,3.2,78c0,0,0,0.1,0,0.1c-0.1,0.5,0.1,0.7,0.6,0.9c1.3,0.4,2.6,0.7,3.9,1c2,0.3,3.1,1.6,3.2,3.6c0,0.4,0,0.8,0,1.2
		c0.1,2.1-0.8,3.4-2.7,4.2c-1.5,0.6-3,0.9-4.5,1.3c-0.4,0.1-0.7,0.1-0.7,0.6c0.1,0.9,0.1,1.8,0.2,2.7c0.1,0.4,0.2,0.7,0.8,0.8
		c1.1,0.1,2.2,0.4,3.3,0.3c2.6-0.2,3.9,0.7,4.7,3.2c0.1,0.4,0.2,0.9,0.3,1.3c0.3,1.7-0.3,3-1.7,3.9c-1.3,1-2.8,1.7-4.3,2.2
		c-0.8,0.3-0.8,0.4-0.6,1.2c0.2,0.8,0.5,1.5,0.7,2.3c0.1,0.5,0.3,0.6,0.7,0.5c1.3-0.1,2.6,0,3.9-0.4c2-0.5,3.4,0.2,4.4,2
		c0.3,0.5,0.5,1,0.7,1.5c0.7,1.7,0.4,3.1-0.9,4.4c-1,1-2.1,1.9-3.4,2.7c-1.2,0.8-1.2,0.8-0.6,2c0.3,0.5,0.5,1,0.7,1.6
		c0.2,0.5,0.5,0.7,1,0.5c1.3-0.3,2.6-0.7,3.8-1.2c1.3-0.6,2.7-0.6,3.8,0.4c2.4,2.3,3.4,4.6,1.1,7.4c-0.3,0.3-0.6,0.7-0.9,1
		c-0.6,0.6-1.3,1.3-1.9,1.9c-0.4,0.4-0.4,0.8-0.1,1.2c0.5,0.7,1,1.4,1.5,2c0.2,0.2,0.4,0.4,0.7,0.2c1.2-0.6,2.5-0.9,3.6-1.8
		c0.9-0.8,2.1-1,3.3-0.7c2.9,0.7,4.6,4,3.5,6.8c-0.6,1.5-1.5,2.7-2.5,4c-0.3,0.3-0.4,0.6,0,0.9c0.7,0.5,1.2,1.2,1.8,1.8
		c0.4,0.4,0.8,0.4,1.3,0.1c1.1-0.7,2.1-1.5,3-2.5c1.2-1.3,3.2-1.5,4.7-0.6c0.6,0.4,1.1,0.7,1.7,1.2c1.2,1,1.7,2.3,1.3,4
		c-0.3,1.5-0.9,2.9-1.5,4.3c-0.4,0.9-0.5,1,0.4,1.6c0.8,0.6,1.6,1.1,2.5,1.7c0.9-1.3,2.1-2.3,2.9-3.6c1.1-1.6,2.5-2.1,4.3-1.5
		c0.7,0.2,1.3,0.5,2,0.9c1.4,0.8,2,1.9,2,3.5c0,1.6-0.3,3.2-0.7,4.8c-0.2,0.9-0.2,1.1,0.7,1.4c0.6,0.3,1.3,0.4,1.9,0.7
		c0.6,0.3,0.9,0.1,1.2-0.4c0.7-1.1,1.4-2.2,1.9-3.4c0.7-1.6,1.9-2.3,3.6-2.2c1,0,2,0.3,2.9,0.7c1.1,0.5,1.9,1.4,2.2,2.6
		c0.5,2,0.4,4,0.2,6.1c1,0.4,2,0.4,3.1,0.7c0.5,0.1,0.8,0,0.9-0.5c0.4-1.1,1-2.2,1.2-3.4c0.4-2.2,1.6-3.2,3.8-3.2c0.5,0,1.1,0,1.6,0
		c1.5,0,2.5,0.7,3.1,1.9c0.6,1.2,1.1,2.5,1.2,3.8c0.3,2.8,0.3,2.8,3.1,2.7 M86.6,150.8c-36.2,0-65.6-29.4-65.6-65.6
		s29.4-65.6,65.6-65.6s65.6,29.4,65.6,65.6S122.8,150.8,86.6,150.8z"/>
</g>
</svg>
